<svg width="12" height="6" viewBox="0 0 12 6" fill="none" xmlns="http://www.w3.org/2000/svg">
<path d="M10.3215 5.98774C10.0355 5.98768 9.76114 5.8825 9.55889 5.69532L6.00674 2.40894L2.45459 5.69532C2.35508 5.79064 2.23606 5.86667 2.10445 5.91898C1.97284 5.97128 1.8313 5.99881 1.68807 5.99996C1.54484 6.00111 1.4028 5.97586 1.27023 5.92568C1.13766 5.8755 1.01722 5.8014 0.915941 5.70769C0.81466 5.61399 0.734563 5.50256 0.680325 5.37991C0.626087 5.25726 0.598795 5.12585 0.600039 4.99334C0.601284 4.86082 0.631041 4.72987 0.687575 4.60811C0.744108 4.48635 0.826286 4.37623 0.929312 4.28416L5.2441 0.292199C5.44639 0.105104 5.72071 0 6.00674 0C6.29277 0 6.56709 0.105104 6.76938 0.292199L11.0842 4.28416C11.235 4.42374 11.3377 4.60154 11.3793 4.7951C11.4209 4.98867 11.3995 5.1893 11.3179 5.37163C11.2363 5.55396 11.0981 5.70981 10.9207 5.81948C10.7434 5.92914 10.5348 5.98769 10.3215 5.98774Z" fill="#111928"/>
</svg>
