<svg width="20" height="21" viewBox="0 0 20 21" fill="none" xmlns="http://www.w3.org/2000/svg">
<path d="M18.8235 3.95242H1.17647C0.864451 3.95242 0.565212 3.81445 0.344581 3.56887C0.123949 3.32329 0 2.99021 0 2.6429C0 2.29559 0.123949 1.96251 0.344581 1.71692C0.565212 1.47134 0.864451 1.33337 1.17647 1.33337H18.8235C19.1355 1.33337 19.4348 1.47134 19.6554 1.71692C19.8761 1.96251 20 2.29559 20 2.6429C20 2.99021 19.8761 3.32329 19.6554 3.56887C19.4348 3.81445 19.1355 3.95242 18.8235 3.95242Z" fill="#6B7280"/>
<path d="M18.8235 11.8096H1.17647C0.864451 11.8096 0.565212 11.6716 0.344581 11.426C0.123949 11.1804 0 10.8473 0 10.5C0 10.1527 0.123949 9.81965 0.344581 9.57407C0.565212 9.32848 0.864451 9.19052 1.17647 9.19052H18.8235C19.1355 9.19052 19.4348 9.32848 19.6554 9.57407C19.8761 9.81965 20 10.1527 20 10.5C20 10.8473 19.8761 11.1804 19.6554 11.426C19.4348 11.6716 19.1355 11.8096 18.8235 11.8096Z" fill="#6B7280"/>
<path d="M18.8235 19.6667H1.17647C0.864451 19.6667 0.565212 19.5287 0.344581 19.2832C0.123949 19.0376 0 18.7045 0 18.3572C0 18.0099 0.123949 17.6768 0.344581 17.4312C0.565212 17.1856 0.864451 17.0477 1.17647 17.0477H18.8235C19.1355 17.0477 19.4348 17.1856 19.6554 17.4312C19.8761 17.6768 20 18.0099 20 18.3572C20 18.7045 19.8761 19.0376 19.6554 19.2832C19.4348 19.5287 19.1355 19.6667 18.8235 19.6667Z" fill="#6B7280"/>
</svg>
