<svg width="18" height="21" viewBox="0 0 18 21" fill="none" xmlns="http://www.w3.org/2000/svg">
<path d="M15.1107 11.5862V9.69145C15.1115 8.41087 14.6237 7.1675 13.7263 6.16237C12.8289 5.15725 11.5743 4.44915 10.1654 4.15258C10.1762 4.11584 10.1845 4.07859 10.1904 4.041V1.55262C10.1904 1.27345 10.065 1.00571 9.84175 0.808304C9.61849 0.610901 9.31569 0.5 8.99996 0.5C8.68423 0.5 8.38142 0.610901 8.15817 0.808304C7.93491 1.00571 7.80948 1.27345 7.80948 1.55262V4.041C7.8154 4.07859 7.82375 4.11584 7.83448 4.15258C6.42557 4.44915 5.17098 5.15725 4.27358 6.16237C3.37618 7.1675 2.88845 8.41087 2.88925 9.69145V11.5862C2.88925 14.0977 0.666626 14.7251 0.666626 15.9808C0.666626 16.605 0.666626 17.2366 1.3071 17.2366H16.6928C17.3333 17.2366 17.3333 16.605 17.3333 15.9808C17.3333 14.7251 15.1107 14.0977 15.1107 11.5862Z" fill="#6B7280"/>
<path d="M5.21782 18.2892C5.53362 18.945 6.06054 19.5043 6.73301 19.8973C7.40548 20.2904 8.19383 20.5 8.99996 20.5C9.80609 20.5 10.5944 20.2904 11.2669 19.8973C11.9394 19.5043 12.4663 18.945 12.7821 18.2892H5.21782Z" fill="#6B7280"/>
</svg>
