<svg width="14" height="15" viewBox="0 0 14 15" fill="none" xmlns="http://www.w3.org/2000/svg">
<path d="M0 12.9882C0 13.3595 0.1475 13.7156 0.41005 13.9781C0.672601 14.2407 1.0287 14.3882 1.4 14.3882H12.6C12.9713 14.3882 13.3274 14.2407 13.5899 13.9781C13.8525 13.7156 14 13.3595 14 12.9882V5.98818H0V12.9882ZM9.8 7.73818C9.8 7.64536 9.83687 7.55633 9.90251 7.4907C9.96815 7.42506 10.0572 7.38818 10.15 7.38818H10.85C10.9428 7.38818 11.0318 7.42506 11.0975 7.4907C11.1631 7.55633 11.2 7.64536 11.2 7.73818V8.43818C11.2 8.53101 11.1631 8.62003 11.0975 8.68567C11.0318 8.75131 10.9428 8.78818 10.85 8.78818H10.15C10.0572 8.78818 9.96815 8.75131 9.90251 8.68567C9.83687 8.62003 9.8 8.53101 9.8 8.43818V7.73818ZM9.8 10.5382C9.8 10.4454 9.83687 10.3563 9.90251 10.2907C9.96815 10.2251 10.0572 10.1882 10.15 10.1882H10.85C10.9428 10.1882 11.0318 10.2251 11.0975 10.2907C11.1631 10.3563 11.2 10.4454 11.2 10.5382V11.2382C11.2 11.331 11.1631 11.42 11.0975 11.4857C11.0318 11.5513 10.9428 11.5882 10.85 11.5882H10.15C10.0572 11.5882 9.96815 11.5513 9.90251 11.4857C9.83687 11.42 9.8 11.331 9.8 11.2382V10.5382ZM6.3 7.73818C6.3 7.64536 6.33687 7.55633 6.40251 7.4907C6.46815 7.42506 6.55717 7.38818 6.65 7.38818H7.35C7.44283 7.38818 7.53185 7.42506 7.59749 7.4907C7.66313 7.55633 7.7 7.64536 7.7 7.73818V8.43818C7.7 8.53101 7.66313 8.62003 7.59749 8.68567C7.53185 8.75131 7.44283 8.78818 7.35 8.78818H6.65C6.55717 8.78818 6.46815 8.75131 6.40251 8.68567C6.33687 8.62003 6.3 8.53101 6.3 8.43818V7.73818ZM6.3 10.5382C6.3 10.4454 6.33687 10.3563 6.40251 10.2907C6.46815 10.2251 6.55717 10.1882 6.65 10.1882H7.35C7.44283 10.1882 7.53185 10.2251 7.59749 10.2907C7.66313 10.3563 7.7 10.4454 7.7 10.5382V11.2382C7.7 11.331 7.66313 11.42 7.59749 11.4857C7.53185 11.5513 7.44283 11.5882 7.35 11.5882H6.65C6.55717 11.5882 6.46815 11.5513 6.40251 11.4857C6.33687 11.42 6.3 11.331 6.3 11.2382V10.5382ZM2.8 7.73818C2.8 7.64536 2.83687 7.55633 2.90251 7.4907C2.96815 7.42506 3.05717 7.38818 3.15 7.38818H3.85C3.94283 7.38818 4.03185 7.42506 4.09749 7.4907C4.16312 7.55633 4.2 7.64536 4.2 7.73818V8.43818C4.2 8.53101 4.16312 8.62003 4.09749 8.68567C4.03185 8.75131 3.94283 8.78818 3.85 8.78818H3.15C3.05717 8.78818 2.96815 8.75131 2.90251 8.68567C2.83687 8.62003 2.8 8.53101 2.8 8.43818V7.73818ZM2.8 10.5382C2.8 10.4454 2.83687 10.3563 2.90251 10.2907C2.96815 10.2251 3.05717 10.1882 3.15 10.1882H3.85C3.94283 10.1882 4.03185 10.2251 4.09749 10.2907C4.16312 10.3563 4.2 10.4454 4.2 10.5382V11.2382C4.2 11.331 4.16312 11.42 4.09749 11.4857C4.03185 11.5513 3.94283 11.5882 3.85 11.5882H3.15C3.05717 11.5882 2.96815 11.5513 2.90251 11.4857C2.83687 11.42 2.8 11.331 2.8 11.2382V10.5382Z" fill="#1F2A37"/>
<path d="M14 3.18818C14 2.81688 13.8525 2.46078 13.5899 2.19823C13.3274 1.93568 12.9713 1.78818 12.6 1.78818H11.2V1.08818C11.2 0.902532 11.1263 0.724484 10.995 0.593209C10.8637 0.461933 10.6857 0.388184 10.5 0.388184C10.3143 0.388184 10.1363 0.461933 10.005 0.593209C9.87375 0.724484 9.8 0.902532 9.8 1.08818V1.78818H7.7V1.08818C7.7 0.902532 7.62625 0.724484 7.49497 0.593209C7.3637 0.461933 7.18565 0.388184 7 0.388184C6.81435 0.388184 6.6363 0.461933 6.50503 0.593209C6.37375 0.724484 6.3 0.902532 6.3 1.08818V1.78818H4.2V1.08818C4.2 0.902532 4.12625 0.724484 3.99497 0.593209C3.8637 0.461933 3.68565 0.388184 3.5 0.388184C3.31435 0.388184 3.1363 0.461933 3.00503 0.593209C2.87375 0.724484 2.8 0.902532 2.8 1.08818V1.78818H1.4C1.0287 1.78818 0.672601 1.93568 0.41005 2.19823C0.1475 2.46078 0 2.81688 0 3.18818V4.58818H14V3.18818Z" fill="#1F2A37"/>
</svg>
