<svg width="16" height="16" viewBox="0 0 16 16" fill="none" xmlns="http://www.w3.org/2000/svg">
<g clip-path="url(#clip0_86_112)">
<path d="M14.5771 4.7384C14.5611 4.53708 14.4675 4.34908 14.315 4.21213C14.1625 4.07518 13.9625 3.9994 13.755 4H11.2886V3.2C11.2886 2.35131 10.9421 1.53737 10.3254 0.937258C9.70865 0.337142 8.8722 0 8.00003 0C7.12786 0 6.29141 0.337142 5.67469 0.937258C5.05797 1.53737 4.7115 2.35131 4.7115 3.2V4H2.24511C2.0376 3.9994 1.83754 4.07518 1.68506 4.21213C1.53257 4.34908 1.43895 4.53708 1.42297 4.7384L0.671546 14.2768C0.654098 14.4966 0.683534 14.7176 0.758006 14.9259C0.832478 15.1341 0.950378 15.3251 1.10431 15.4869C1.25824 15.6487 1.44488 15.7778 1.65251 15.8661C1.86014 15.9544 2.08428 16 2.31088 16H13.6892C13.9157 16 14.1398 15.9544 14.3473 15.8662C14.5549 15.7779 14.7415 15.6489 14.8954 15.4872C15.0493 15.3255 15.1673 15.1346 15.2418 14.9264C15.3163 14.7183 15.3458 14.4974 15.3285 14.2776L14.5771 4.7384ZM6.35577 7.2C6.35577 7.41217 6.26915 7.61566 6.11497 7.76569C5.96079 7.91571 5.75168 8 5.53363 8C5.31559 8 5.10648 7.91571 4.9523 7.76569C4.79812 7.61566 4.7115 7.41217 4.7115 7.2V5.6H6.35577V7.2ZM6.35577 3.2C6.35577 2.77565 6.529 2.36869 6.83736 2.06863C7.14572 1.76857 7.56394 1.6 8.00003 1.6C8.43612 1.6 8.85434 1.76857 9.1627 2.06863C9.47106 2.36869 9.64429 2.77565 9.64429 3.2V4H6.35577V3.2ZM11.2886 7.2C11.2886 7.41217 11.2019 7.61566 11.0478 7.76569C10.8936 7.91571 10.6845 8 10.4664 8C10.2484 8 10.0393 7.91571 9.88509 7.76569C9.73091 7.61566 9.64429 7.41217 9.64429 7.2V5.6H11.2886V7.2Z" fill="#1F2A37"/>
</g>
<defs>
<clipPath id="clip0_86_112">
<rect width="16" height="16" fill="white"/>
</clipPath>
</defs>
</svg>
