<svg width="15" height="14" viewBox="0 0 15 14" fill="none" xmlns="http://www.w3.org/2000/svg">
<path d="M5.68059 4.1602C5.87299 4.1602 6.06394 4.0926 6.2077 3.9574C6.7457 3.44975 7.70553 3.4309 8.26604 3.91515C8.55501 4.16475 9.01459 4.15695 9.29267 3.8989C9.57147 3.6402 9.56276 3.22875 9.27452 2.9798C8.72926 2.5092 8.01483 2.25115 7.26047 2.25115C6.46835 2.25115 5.70092 2.5469 5.1542 3.06235C4.87831 3.32235 4.89065 3.7338 5.18107 3.98145C5.3212 4.10105 5.50126 4.1602 5.68059 4.1602Z" fill="#A0ABB8"/>
<path d="M12.3428 4.85115C12.3428 2.3428 10.0623 0.301147 7.26047 0.301147C4.45865 0.301147 2.17814 2.3428 2.17814 4.85115C0.977259 4.85115 0 5.72605 0 6.80115V8.10115C0 9.17625 0.977259 10.0511 2.17814 10.0511H2.90419C3.30569 10.0511 3.63023 9.7606 3.63023 9.40115V4.85115C3.63023 3.0591 5.25875 1.60115 7.26047 1.60115C9.26218 1.60115 10.8907 3.0591 10.8907 4.85115V9.4551C10.8907 10.5003 9.9403 11.3511 8.77282 11.3511H8.71256C8.71256 10.6342 8.06129 10.0511 7.26047 10.0511H6.53442C5.73359 10.0511 5.08233 10.6342 5.08233 11.3511V12.0011C5.08233 12.7181 5.73359 13.3011 6.53442 13.3011H7.26047C7.79556 13.3011 8.25878 13.0379 8.51072 12.6511H8.77282C10.5132 12.6511 11.9623 11.5286 12.2753 10.0511H12.3428C13.5437 10.0511 14.5209 9.17625 14.5209 8.10115V6.80115C14.5209 5.72605 13.5437 4.85115 12.3428 4.85115ZM2.17814 8.75115C1.77736 8.75115 1.45209 8.45995 1.45209 8.10115V6.80115C1.45209 6.44235 1.77736 6.15115 2.17814 6.15115V8.75115ZM7.26047 12.0011H6.53442V11.3511H7.26047V12.0011ZM13.0688 8.10115C13.0688 8.45995 12.7436 8.75115 12.3428 8.75115V6.15115C12.7436 6.15115 13.0688 6.44235 13.0688 6.80115V8.10115Z" fill="#A0ABB8"/>
</svg>
