<svg width="12" height="13" viewBox="0 0 12 13" fill="none" xmlns="http://www.w3.org/2000/svg">
<g clip-path="url(#clip0_1_8626)">
<path d="M6.4778 2.52413L6.20002 2.93986L6.4778 2.52413C6.24757 2.37029 5.9769 2.28818 5.7 2.28818C5.3287 2.28818 4.9726 2.43568 4.71005 2.69823C4.4475 2.96078 4.3 3.31688 4.3 3.68818C4.3 3.96508 4.38211 4.23575 4.53594 4.46598C4.59053 4.54768 4.65329 4.62299 4.72297 4.69088C4.45938 4.70938 4.21024 4.82231 4.02219 5.01036C3.81589 5.21665 3.7 5.49644 3.7 5.78818C3.7 6.07992 3.8159 6.35971 4.02218 6.566C4.22847 6.77229 4.50826 6.88818 4.8 6.88818H4.9V7.68818H4.8C4.50826 7.68818 4.22847 7.80407 4.02218 8.01036C3.8159 8.21665 3.7 8.49644 3.7 8.78818C3.7 9.07992 3.81589 9.35971 4.02218 9.566C4.22848 9.77229 4.50826 9.88818 4.8 9.88818H7.2C7.49174 9.88818 7.77153 9.77229 7.97782 9.566C8.18411 9.35971 8.3 9.07992 8.3 8.78818C8.3 8.49644 8.18411 8.21665 7.97782 8.01036C7.77153 7.80407 7.49174 7.68818 7.2 7.68818H7.1V5.78818C7.1 5.49644 6.98411 5.21665 6.77782 5.01037C6.70189 4.93443 6.61599 4.87075 6.52321 4.82058C6.58218 4.77771 6.63796 4.73012 6.68995 4.67813C6.88575 4.48234 7.01908 4.23288 7.0731 3.96131L6.58271 3.86376L7.0731 3.96131C7.12712 3.68974 7.0994 3.40824 6.99343 3.15243L6.53149 3.34377L6.99343 3.15243C6.88747 2.89661 6.70803 2.67796 6.4778 2.52413ZM2.94437 1.8151C3.84876 1.2108 4.91203 0.888238 5.99973 0.888184C7.45797 0.889857 8.85602 1.46988 9.88716 2.50103C10.9184 3.53223 11.4984 4.93039 11.5 6.38873C11.4999 7.47634 11.1773 8.5395 10.5731 9.44382C9.96874 10.3483 9.10975 11.0532 8.10476 11.4695C7.09977 11.8858 5.9939 11.9947 4.92701 11.7825C3.86011 11.5703 2.8801 11.0465 2.11092 10.2773C1.34173 9.50808 0.817902 8.52807 0.605684 7.46118C0.393465 6.39428 0.502383 5.28842 0.918665 4.28342C1.33495 3.27843 2.0399 2.41945 2.94437 1.8151Z" fill="#9CA3AF" stroke="#9CA3AF"/>
</g>
<defs>
<clipPath id="clip0_1_8626">
<rect width="12" height="12" fill="white" transform="translate(0 0.388184)"/>
</clipPath>
</defs>
</svg>
