<svg width="16" height="16" viewBox="0 0 16 16" fill="none" xmlns="http://www.w3.org/2000/svg">
<g clip-path="url(#clip0_86_126)">
<path d="M14.2018 0.696C14.1579 0.498462 14.0479 0.32182 13.89 0.195268C13.7321 0.068717 13.5357 -0.000167314 13.3333 3.05183e-07H2.66667C2.46431 -0.000167314 2.26795 0.068717 2.11004 0.195268C1.95213 0.32182 1.84213 0.498462 1.79822 0.696L0.177778 8H3.94578C4.46374 8.00029 4.97033 8.15186 5.40333 8.4361C5.83632 8.72035 6.17686 9.12488 6.38311 9.6C6.51811 9.91709 6.74337 10.1875 7.03086 10.3775C7.31834 10.5676 7.65537 10.6689 8 10.6689C8.34463 10.6689 8.68166 10.5676 8.96914 10.3775C9.25663 10.1875 9.48189 9.91709 9.61689 9.6C9.82314 9.12488 10.1637 8.72035 10.5967 8.4361C11.0297 8.15186 11.5363 8.00029 12.0542 8H15.8222L14.2018 0.696ZM5.33333 1.77778H10.6667C10.9024 1.77778 11.1285 1.87143 11.2952 2.03813C11.4619 2.20483 11.5556 2.43092 11.5556 2.66667C11.5556 2.90242 11.4619 3.12851 11.2952 3.29521C11.1285 3.46191 10.9024 3.55556 10.6667 3.55556H5.33333C5.09759 3.55556 4.87149 3.46191 4.70479 3.29521C4.5381 3.12851 4.44444 2.90242 4.44444 2.66667C4.44444 2.43092 4.5381 2.20483 4.70479 2.03813C4.87149 1.87143 5.09759 1.77778 5.33333 1.77778ZM11.5556 6.22222H4.44444C4.2087 6.22222 3.9826 6.12857 3.81591 5.96187C3.64921 5.79517 3.55556 5.56908 3.55556 5.33333C3.55556 5.09759 3.64921 4.87149 3.81591 4.70479C3.9826 4.5381 4.2087 4.44445 4.44444 4.44445H11.5556C11.7913 4.44445 12.0174 4.5381 12.1841 4.70479C12.3508 4.87149 12.4444 5.09759 12.4444 5.33333C12.4444 5.56908 12.3508 5.79517 12.1841 5.96187C12.0174 6.12857 11.7913 6.22222 11.5556 6.22222Z" fill="#9CA3AF"/>
<path d="M0.888889 16H15.1111C15.3469 16 15.573 15.9064 15.7397 15.7397C15.9064 15.573 16 15.3469 16 15.1111V9.77778H12.0542C11.8823 9.77823 11.7143 9.82897 11.5709 9.92373C11.4275 10.0185 11.3149 10.1532 11.2471 10.3111C10.9737 10.9454 10.5204 11.4857 9.94338 11.8653C9.36633 12.245 8.69073 12.4473 8 12.4473C7.30927 12.4473 6.63367 12.245 6.05662 11.8653C5.47957 11.4857 5.02634 10.9454 4.75289 10.3111C4.68507 10.1532 4.57251 10.0185 4.4291 9.92373C4.28568 9.82897 4.11767 9.77823 3.94578 9.77778H0V15.1111C0 15.3469 0.0936505 15.573 0.260349 15.7397C0.427048 15.9064 0.653141 16 0.888889 16Z" fill="#9CA3AF"/>
</g>
<defs>
<clipPath id="clip0_86_126">
<rect width="16" height="16" fill="white"/>
</clipPath>
</defs>
</svg>
