<svg width="14" height="14" viewBox="0 0 14 14" fill="none" xmlns="http://www.w3.org/2000/svg">
<g clip-path="url(#clip0_2_866)">
<path d="M11.15 3.29259H9.85353V2.3438C9.85353 2.09217 9.76247 1.85084 9.60037 1.67291C9.43828 1.49498 9.21843 1.39502 8.98919 1.39502H5.53183C5.30259 1.39502 5.08274 1.49498 4.92065 1.67291C4.75855 1.85084 4.66749 2.09217 4.66749 2.3438V3.29259H3.37097C3.02712 3.29259 2.69735 3.44253 2.4542 3.70943C2.21106 3.97632 2.07446 4.33832 2.07446 4.71576V12.7804H12.4466V4.71576C12.4466 4.33832 12.31 3.97632 12.0668 3.70943C11.8237 3.44253 11.4939 3.29259 11.15 3.29259ZM5.53183 2.3438H8.98919V3.29259H5.53183V2.3438ZM3.37097 4.24137H11.15C11.2647 4.24137 11.3746 4.29135 11.4556 4.38032C11.5367 4.46929 11.5822 4.58995 11.5822 4.71576V7.08773H2.9388V4.71576C2.9388 4.58995 2.98434 4.46929 3.06538 4.38032C3.14643 4.29135 3.25636 4.24137 3.37097 4.24137ZM2.9388 11.8316V8.03651H6.82834V8.98529H7.69268V8.03651H11.5822V11.8316H2.9388Z" fill="#A0ABB8"/>
</g>
<defs>
<clipPath id="clip0_2_866">
<rect width="10.3721" height="11.3854" fill="white" transform="translate(2.07446 1.39502)"/>
</clipPath>
</defs>
</svg>
