<svg width="12" height="14" viewBox="0 0 12 14" fill="none" xmlns="http://www.w3.org/2000/svg">
<g clip-path="url(#clip0_2_860)">
<path d="M5.71389 13.3055L5.38058 12.9805C4.92108 12.5428 0.908936 8.60108 0.908936 5.71779C0.908936 4.26813 1.41517 2.87784 2.31628 1.85277C3.21738 0.827707 4.43954 0.251831 5.71389 0.251831C6.98825 0.251831 8.21041 0.827707 9.11151 1.85277C10.0126 2.87784 10.5189 4.26813 10.5189 5.71779C10.5189 8.60108 6.5067 12.5428 6.04911 12.9826L5.71389 13.3055ZM5.71389 1.43375C4.71544 1.43504 3.75821 1.88681 3.0522 2.68994C2.34619 3.49307 1.94906 4.58199 1.94792 5.71779C1.94792 7.52912 4.41635 10.4227 5.71389 11.7471C7.01144 10.4222 9.47987 7.52696 9.47987 5.71779C9.47873 4.58199 9.0816 3.49307 8.37558 2.68994C7.66957 1.88681 6.71234 1.43504 5.71389 1.43375Z" fill="#A0ABB8"/>
<path d="M5.71386 7.88448C5.33715 7.88448 4.96891 7.75741 4.65569 7.51933C4.34247 7.28126 4.09835 6.94287 3.95419 6.54696C3.81003 6.15106 3.77231 5.71541 3.8458 5.29512C3.91929 4.87483 4.10069 4.48876 4.36706 4.18575C4.63343 3.88274 4.97281 3.67638 5.34228 3.59278C5.71174 3.50918 6.09471 3.55209 6.44273 3.71608C6.79076 3.88007 7.08823 4.15777 7.29752 4.51408C7.5068 4.87039 7.61851 5.28929 7.61851 5.71782C7.61851 6.29245 7.41784 6.84355 7.06065 7.24988C6.70346 7.65621 6.219 7.88448 5.71386 7.88448ZM5.71386 4.63448C5.5255 4.63448 5.34138 4.69802 5.18477 4.81706C5.02816 4.93609 4.9061 5.10529 4.83402 5.30324C4.76194 5.50119 4.74308 5.71902 4.77983 5.92916C4.81657 6.13931 4.90728 6.33234 5.04046 6.48385C5.17365 6.63535 5.34333 6.73853 5.52807 6.78033C5.7128 6.82213 5.90428 6.80068 6.0783 6.71868C6.25231 6.63669 6.40104 6.49784 6.50569 6.31968C6.61033 6.14153 6.66618 5.93208 6.66618 5.71782C6.66618 5.4305 6.56585 5.15495 6.38725 4.95178C6.20866 4.74862 5.96643 4.63448 5.71386 4.63448Z" fill="#A0ABB8"/>
</g>
<defs>
<clipPath id="clip0_2_860">
<rect width="11.4279" height="13" fill="white" transform="translate(0 0.301147)"/>
</clipPath>
</defs>
</svg>
