<svg width="16" height="16" viewBox="0 0 16 16" fill="none" xmlns="http://www.w3.org/2000/svg">
<g clip-path="url(#clip0_86_133)">
<path d="M13.5 5.6H12.125V3.6C12.125 2.64522 11.6904 1.72955 10.9168 1.05442C10.1432 0.379285 9.09402 0 8 0C6.90598 0 5.85677 0.379285 5.08318 1.05442C4.30959 1.72955 3.875 2.64522 3.875 3.6V5.6H2.5C2.01377 5.6 1.54745 5.76857 1.20363 6.06863C0.859818 6.36869 0.666664 6.77565 0.666664 7.2V14.4C0.666664 14.8243 0.859818 15.2313 1.20363 15.5314C1.54745 15.8314 2.01377 16 2.5 16H13.5C13.9862 16 14.4525 15.8314 14.7964 15.5314C15.1402 15.2313 15.3333 14.8243 15.3333 14.4V7.2C15.3333 6.77565 15.1402 6.36869 14.7964 6.06863C14.4525 5.76857 13.9862 5.6 13.5 5.6ZM8.91666 12C8.91666 12.2122 8.82009 12.4157 8.64818 12.5657C8.47627 12.7157 8.24311 12.8 8 12.8C7.75688 12.8 7.52373 12.7157 7.35182 12.5657C7.17991 12.4157 7.08333 12.2122 7.08333 12V9.6C7.08333 9.38783 7.17991 9.18434 7.35182 9.03432C7.52373 8.88429 7.75688 8.8 8 8.8C8.24311 8.8 8.47627 8.88429 8.64818 9.03432C8.82009 9.18434 8.91666 9.38783 8.91666 9.6V12ZM10.2917 5.6H5.70833V3.6C5.70833 3.06957 5.94977 2.56086 6.37954 2.18579C6.80932 1.81071 7.39221 1.6 8 1.6C8.60779 1.6 9.19068 1.81071 9.62045 2.18579C10.0502 2.56086 10.2917 3.06957 10.2917 3.6V5.6Z" fill="#9CA3AF"/>
</g>
<defs>
<clipPath id="clip0_86_133">
<rect width="16" height="16" fill="white"/>
</clipPath>
</defs>
</svg>
