<svg width="16" height="16" viewBox="0 0 16 16" fill="none" xmlns="http://www.w3.org/2000/svg">
<path d="M5.50007 4V0.104C5.09345 0.211983 4.72247 0.41829 4.42261 0.7032L2.06601 2.9656C1.76983 3.25391 1.55503 3.60991 1.44186 4H5.50007Z" fill="#9CA3AF"/>
<path d="M13.0549 0H7.16669V4C7.16669 4.42435 6.9911 4.83131 6.67855 5.13137C6.366 5.43143 5.94209 5.6 5.50007 5.6H1.33353V14.4C1.32684 14.8172 1.49274 15.2199 1.79485 15.5198C2.09696 15.8197 2.51062 15.9924 2.94515 16H13.0549C13.4894 15.9924 13.903 15.8197 14.2052 15.5198C14.5073 15.2199 14.6732 14.8172 14.6665 14.4V1.6C14.6732 1.18282 14.5073 0.780122 14.2052 0.48019C13.903 0.180259 13.4894 0.00757502 13.0549 0Z" fill="#9CA3AF"/>
</svg>
