<svg width="8" height="11" viewBox="0 0 8 11" fill="none" xmlns="http://www.w3.org/2000/svg">
<path d="M4.19488 1.45904L4.19524 1.45939L7.19062 4.31273C7.23191 4.35456 7.25042 4.405 7.24999 4.45241C7.24955 4.50067 7.22939 4.55201 7.18551 4.59381C7.14083 4.63636 7.07554 4.66444 7.00253 4.66504C6.93072 4.66564 6.86568 4.63954 6.82007 4.59868L5.10468 2.96463L4.25981 2.15983V3.32667V10.1739C4.25981 10.2227 4.2397 10.2747 4.19532 10.3169C4.15012 10.36 4.08385 10.3882 4.00996 10.3882C3.93607 10.3882 3.8698 10.36 3.82461 10.3169C3.78023 10.2747 3.76011 10.2227 3.76011 10.1739V3.32667V2.16053L2.91541 2.96448L1.1945 4.60236L1.19445 4.6023L1.1881 4.60856C1.16619 4.63017 1.13865 4.64869 1.10645 4.66186C1.07422 4.67505 1.03872 4.6823 1.00223 4.6826C0.965733 4.6829 0.930048 4.67624 0.897472 4.66355C0.864927 4.65086 0.836923 4.63273 0.814492 4.61136L0.814491 4.61136C0.792114 4.59005 0.775814 4.56605 0.765257 4.54147C0.754729 4.51696 0.74978 4.49161 0.750008 4.46667C0.750235 4.44172 0.755648 4.41639 0.766676 4.39193C0.777736 4.3674 0.794564 4.34355 0.817455 4.32249L0.817506 4.32255L0.823786 4.31656L3.82319 1.45939L3.82355 1.45904C3.84531 1.43827 3.87255 1.42061 3.90426 1.40825L3.90426 1.40825L3.90596 1.40759C3.97167 1.38172 4.04676 1.38172 4.11247 1.40759L4.11247 1.40759L4.11416 1.40825C4.14588 1.42061 4.17312 1.43827 4.19488 1.45904Z" fill="#03543F" stroke="#03543F"/>
</svg>
